 <svg  version="1.0" xmlns="http://www.w3.org/2000/svg"  width="1350.000000pt" height="993.000000pt" viewBox="0 0 1350.000000 993.000000"  preserveAspectRatio="xMidYMid meet">  <g transform="translate(0.000000,993.000000) scale(0.100000,-0.100000)" fill="#000000" stroke="none"> <path d="M6531 9147 c-111 -14 -149 -42 -388 -282 -229 -231 -395 -415 -543 -605 -19 -24 -41 -51 -48 -60 -24 -28 -106 -135 -152 -198 -25 -35 -71 -99 -102 -143 -32 -43 -58 -82 -58 -85 0 -3 -12 -23 -27 -43 -16 -20 -34 -45 -40 -56 -7 -11 -32 -51 -55 -88 -81 -130 -201 -335 -211 -359 -11 -29 -38 -21 -179 50 -74 37 -161 79 -193 94 -33 14 -90 40 -128 57 -37 17 -71 31 -76 31 -7 0 -75 27 -188 76 -17 8 -36 14 -42 14 -6 0 -25 7 -43 14 -52 23 -341 121 -403 136 -16 5 -68 19 -115 33 -47 13 -96 27 -110 30 -14 3 -68 16 -120 30 -132 34 -292 68 -482 102 -48 9 -127 16 -175 17 -72 1 -95 -2 -128 -20 -79 -42 -117 -91 -145 -188 -11 -38 -27 -91 -35 -119 -13 -44 -47 -189 -90 -385 -35 -163 -89 -506 -114 -735 -6 -49 -18 -231 -27 -402 -15 -287 -15 -338 0 -620 9 -170 21 -342 26 -383 41 -290 83 -511 116 -619 22 -69 19 -90 -14 -96 -15 -3 -72 -18 -127 -32 -55 -14 -120 -29 -145 -33 -25 -5 -56 -13 -70 -18 -14 -5 -50 -17 -80 -26 -116 -34 -257 -78 -295 -93 -22 -8 -58 -22 -80 -30 -98 -37 -141 -61 -177 -98 -75 -78 -75 -170 1 -400 57 -171 78 -231 90 -260 5 -11 30 -72 56 -135 25 -63 53 -128 60 -145 48 -106 108 -234 122 -260 8 -16 37 -70 62 -120 26 -49 58 -108 72 -130 14 -22 28 -48 32 -57 3 -10 26 -48 50 -85 24 -37 70 -108 102 -158 55 -84 228 -318 291 -394 16 -19 58 -65 94 -104 36 -38 66 -73 68 -78 8 -20 284 -267 372 -333 53 -39 109 -81 125 -93 17 -12 54 -37 84 -55 29 -18 65 -41 80 -50 14 -9 61 -35 103 -57 42 -22 85 -44 95 -50 43 -24 154 -71 166 -71 7 0 17 -4 22 -9 19 -17 285 -100 400 -125 39 -9 92 -20 118 -26 26 -6 113 -19 194 -30 191 -26 744 -29 948 -5 187 22 417 63 605 106 296 69 524 141 863 270 l57 22 68 -27 c136 -56 249 -96 407 -145 55 -17 120 -38 145 -46 69 -22 404 -100 510 -119 52 -9 118 -21 145 -27 181 -35 386 -49 718 -49 388 0 491 10 787 76 193 44 449 134 595 211 28 15 75 39 105 55 30 16 69 38 85 48 17 11 37 23 45 27 21 10 132 87 225 157 272 204 553 504 793 846 46 66 184 284 195 310 4 8 16 29 26 45 87 136 339 670 387 820 7 22 22 65 34 95 12 30 25 69 30 85 4 17 12 41 18 55 5 14 18 52 27 85 10 33 24 80 31 104 18 58 18 78 -3 140 -26 82 -88 137 -193 171 -14 5 -50 18 -80 30 -65 25 -137 49 -240 80 -41 12 -109 33 -150 46 -41 13 -81 24 -89 24 -8 0 -38 7 -68 15 -29 8 -77 22 -106 30 -30 8 -65 15 -79 15 -39 0 -51 21 -39 67 9 36 21 86 55 236 27 119 65 393 88 637 17 175 17 740 0 935 -25 296 -57 562 -87 725 -8 41 -21 116 -30 165 -9 50 -23 116 -31 147 -8 32 -14 66 -14 77 0 10 -7 41 -15 67 -8 27 -23 85 -34 129 -65 267 -90 312 -201 370 -26 14 -56 18 -115 17 -72 -1 -274 -30 -365 -52 -19 -5 -73 -16 -120 -26 -80 -16 -205 -47 -330 -81 -30 -8 -71 -19 -90 -23 -19 -4 -48 -12 -65 -18 -16 -5 -77 -24 -135 -42 -107 -33 -246 -80 -312 -106 -21 -8 -55 -20 -75 -28 -70 -26 -197 -78 -278 -113 -44 -19 -96 -42 -115 -50 -19 -8 -97 -46 -173 -84 -142 -71 -174 -80 -182 -54 -9 27 -15 40 -35 70 -11 17 -23 37 -27 45 -37 82 -293 467 -442 665 -68 91 -99 130 -210 264 -293 356 -711 776 -836 839 -54 27 -146 39 -224 29z m215 -1029 c294 -300 581 -640 740 -878 17 -25 57 -84 90 -131 32 -47 64 -94 71 -105 61 -98 83 -138 83 -149 0 -8 -26 -33 -57 -57 -187 -137 -371 -297 -538 -469 -113 -117 -165 -178 -308 -359 -25 -32 -187 -273 -213 -316 -16 -27 -30 -12 -100 99 -71 113 -205 296 -293 399 -91 106 -390 401 -481 473 -41 33 -77 63 -80 66 -3 3 -54 43 -115 89 -60 46 -112 85 -114 86 -17 14 185 316 373 559 65 83 212 263 225 275 3 3 37 41 76 85 131 151 459 475 480 475 14 0 71 -51 161 -142z m-3842 -793 c28 -8 88 -23 133 -34 111 -27 429 -119 503 -145 82 -30 106 -38 130 -43 14 -3 30 -9 35 -13 6 -4 45 -20 88 -34 72 -25 97 -34 152 -57 160 -65 210 -86 263 -110 34 -16 65 -29 68 -29 13 0 330 -162 347 -177 10 -10 15 -23 11 -32 -4 -9 -13 -32 -20 -51 -7 -19 -22 -60 -34 -90 -75 -196 -157 -491 -193 -690 -31 -168 -39 -228 -53 -395 -28 -344 -8 -675 61 -1018 12 -59 15 -91 8 -98 -7 -7 -29 -4 -69 9 -97 32 -272 73 -414 96 -210 35 -256 38 -535 43 -200 4 -333 1 -430 -8 -77 -7 -167 -13 -199 -14 -69 0 -61 -15 -100 180 -100 504 -114 1070 -41 1665 27 214 65 453 90 565 7 33 21 96 30 140 9 44 23 103 30 130 7 28 21 84 31 125 26 110 26 109 108 85z m7470 -17 c15 -36 45 -156 101 -400 40 -179 89 -492 122 -788 24 -222 25 -925 0 -1120 -28 -217 -62 -416 -91 -520 l-12 -45 -60 0 c-32 0 -118 7 -191 14 -153 15 -680 10 -803 -8 -255 -38 -429 -74 -563 -118 -67 -21 -74 -12 -54 74 18 80 41 209 59 343 18 128 17 639 0 785 -44 366 -121 666 -282 1099 -19 49 -20 60 -9 71 13 12 313 165 324 165 3 0 33 13 67 29 35 15 97 42 138 59 41 16 100 40 130 53 96 39 447 160 595 204 125 37 253 73 280 79 17 3 68 17 115 30 115 32 119 32 134 -6z m-5119 -1018 c450 -334 805 -746 1018 -1182 l48 -97 -29 -88 c-73 -221 -131 -487 -166 -753 -43 -328 -57 -730 -35 -992 16 -189 18 -322 5 -326 -5 -2 -19 13 -30 35 -31 58 -131 205 -215 318 -237 317 -535 603 -824 790 -54 35 -79 58 -83 75 -3 14 -12 48 -19 75 -113 422 -137 949 -59 1306 8 37 14 76 14 88 0 11 12 64 26 118 14 54 30 114 34 133 20 78 58 197 90 280 12 30 25 66 30 80 14 43 72 174 82 188 17 20 29 15 113 -48z m2780 -12 c26 -63 45 -110 55 -138 5 -14 18 -50 30 -80 44 -114 104 -318 134 -455 43 -200 76 -485 76 -660 0 -259 -68 -707 -136 -900 -11 -30 -28 -49 -66 -75 -171 -115 -313 -236 -484 -412 -197 -203 -403 -469 -510 -659 -6 -10 -19 -28 -29 -39 -30 -33 -34 -7 -18 115 10 75 14 229 15 490 2 494 -16 674 -108 1113 -18 82 -22 98 -79 295 -21 74 -35 137 -31 151 5 21 62 143 90 191 187 330 397 589 706 867 123 111 292 238 316 238 15 0 26 -12 39 -42z m-1421 -2230 c11 -59 38 -269 53 -413 22 -223 22 -841 0 -1090 -15 -166 -41 -401 -54 -485 -4 -32 -6 -33 -18 -16 -16 21 -29 100 -49 291 -56 526 -56 1009 0 1480 24 199 54 303 68 233z m-2719 -22 c266 -43 597 -138 651 -187 11 -11 31 -45 43 -77 163 -409 345 -746 616 -1137 100 -145 312 -419 410 -530 14 -16 52 -59 83 -95 97 -111 181 -201 299 -320 62 -63 113 -120 113 -128 0 -15 -30 -11 -110 13 -25 8 -92 28 -150 46 -58 17 -136 43 -175 56 -38 14 -83 28 -100 33 -29 8 -55 18 -165 60 -30 12 -66 25 -80 30 -14 4 -68 26 -120 49 -52 22 -98 41 -102 41 -16 0 -375 175 -495 241 -32 17 -83 45 -113 62 -74 40 -247 148 -345 216 -360 246 -668 534 -906 846 -49 64 -139 194 -139 200 0 2 -13 23 -29 47 -80 121 -241 453 -241 499 0 20 94 37 270 50 178 13 671 3 785 -15z m6340 -1 c55 -8 104 -15 109 -15 24 0 -28 -137 -122 -320 -83 -162 -145 -261 -267 -430 -117 -162 -383 -443 -555 -586 -127 -106 -347 -269 -465 -344 -65 -41 -267 -162 -320 -190 -167 -92 -516 -260 -538 -260 -7 0 -21 -6 -32 -14 -11 -7 -47 -23 -80 -36 -33 -12 -82 -31 -110 -42 -27 -11 -61 -23 -75 -28 -14 -5 -50 -18 -80 -30 -126 -48 -492 -164 -577 -183 -13 -3 -26 -1 -29 5 -4 5 72 89 168 186 246 250 419 447 611 694 152 196 376 540 498 763 106 196 261 537 291 643 11 39 356 143 603 183 136 22 273 27 570 23 195 -2 335 -9 400 -19z m-7795 -152 c12 -27 26 -57 30 -68 76 -177 217 -432 325 -587 213 -305 554 -655 856 -878 135 -100 212 -154 223 -160 6 -3 51 -31 99 -62 48 -32 91 -58 94 -58 4 0 14 -6 22 -14 9 -7 43 -28 76 -46 33 -18 94 -52 135 -75 81 -45 383 -195 393 -195 4 0 35 -13 69 -29 35 -16 99 -43 143 -61 44 -17 89 -36 100 -41 11 -4 63 -24 115 -43 253 -91 423 -146 630 -201 36 -10 85 -23 110 -30 25 -8 61 -17 80 -21 73 -14 116 -54 58 -54 -12 0 -44 -6 -72 -14 -88 -25 -168 -44 -256 -61 -47 -9 -103 -20 -126 -25 -77 -17 -318 -48 -479 -62 -526 -44 -1077 25 -1432 178 -17 8 -35 14 -39 14 -15 0 -258 122 -301 151 -23 16 -44 29 -47 29 -9 0 -146 96 -227 160 -110 87 -329 302 -428 422 -294 356 -529 772 -740 1312 -17 43 -31 83 -31 88 0 6 -6 24 -14 41 -26 60 -66 193 -66 223 0 8 10 19 23 24 69 28 324 110 452 146 33 9 78 22 100 30 22 7 54 13 72 13 28 1 34 -4 53 -46z m8468 21 c54 -14 120 -32 147 -40 28 -8 64 -19 80 -23 17 -5 77 -25 135 -45 58 -21 120 -41 137 -47 45 -14 54 -35 36 -84 -8 -22 -18 -56 -23 -75 -9 -34 -48 -142 -90 -250 -12 -30 -25 -66 -30 -80 -44 -135 -228 -509 -349 -708 -31 -51 -61 -100 -66 -110 -18 -30 -48 -75 -109 -162 -261 -370 -641 -723 -955 -884 -133 -68 -194 -97 -221 -106 -14 -5 -50 -18 -80 -30 -61 -24 -233 -76 -295 -90 -192 -41 -261 -53 -400 -67 -341 -35 -799 -14 -1147 52 -261 50 -254 48 -415 90 -32 8 -66 16 -76 17 -10 2 -19 8 -20 13 -1 11 59 33 163 60 36 9 85 22 110 30 25 7 74 21 110 30 36 10 106 30 155 46 50 16 113 36 140 45 28 9 66 22 85 29 19 8 76 28 125 45 50 17 104 37 120 45 17 7 72 30 123 50 51 19 101 40 110 45 9 5 35 17 57 26 84 35 404 195 500 249 335 190 550 340 810 565 89 77 302 291 384 385 231 266 432 582 558 880 14 33 32 75 40 93 16 39 26 40 151 6z m-5592 -571 c135 -133 206 -209 264 -284 25 -31 66 -84 91 -116 71 -90 319 -468 319 -487 0 -1 27 -51 60 -110 33 -59 60 -110 60 -112 0 -2 27 -60 60 -129 33 -69 60 -127 60 -130 0 -3 14 -35 31 -71 43 -92 26 -101 -41 -22 -30 35 -61 70 -69 79 -17 17 -31 34 -101 119 -25 30 -47 57 -51 60 -3 3 -70 90 -148 194 -193 257 -350 496 -491 751 -41 74 -180 351 -180 359 0 22 40 -8 136 -101z m2546 -120 c-38 -76 -82 -160 -99 -188 -16 -27 -32 -57 -36 -65 -4 -8 -16 -28 -27 -45 -11 -16 -24 -39 -29 -50 -5 -11 -34 -58 -64 -105 -31 -47 -77 -119 -103 -160 -44 -68 -138 -201 -226 -319 -69 -93 -281 -357 -312 -388 -37 -38 -50 -34 -31 10 8 18 27 61 42 97 63 145 198 404 292 558 31 51 61 100 66 110 126 215 583 754 593 700 2 -10 -28 -80 -66 -155z"/> </g> </svg> 