<?xml version="1.0" standalone="no"?>
<!DOCTYPE svg PUBLIC "-//W3C//DTD SVG 20010904//EN"
 "http://www.w3.org/TR/2001/REC-SVG-20010904/DTD/svg10.dtd">
<svg version="1.0" xmlns="http://www.w3.org/2000/svg"
 width="450.000000pt" height="331.000000pt" viewBox="0 0 450.000000 331.000000"
 preserveAspectRatio="xMidYMid meet">
<metadata>
Created by potrace 1.10, written by Peter Selinger 2001-2011
</metadata>
<g transform="translate(0.000000,331.000000) scale(0.050000,-0.050000)"
fill="#ffffff" stroke="none">
<path d="M4050 5855 c-299 -305 -539 -623 -767 -1015 -14 -25 -42 -18 -175 44
-622 288 -1322 459 -1454 356 -196 -154 -306 -1494 -175 -2135 22 -106 38
-194 35 -196 -2 -1 -85 -23 -184 -48 -521 -133 -569 -184 -462 -492 555 -1606
1717 -2193 3292 -1662 l246 83 252 -84 c1447 -482 2477 -66 3110 1255 327 683
317 724 -226 881 -139 40 -251 80 -249 90 2 10 17 86 34 168 137 671 25 1995
-182 2152 -119 90 -905 -109 -1434 -363 -95 -46 -161 -68 -166 -55 -38 115
-425 642 -672 914 -243 269 -356 352 -479 352 l-104 0 -240 -245z m535 -520
c204 -223 374 -439 493 -622 l89 -137 -68 -53 c-273 -212 -489 -440 -634 -669
l-61 -95 -94 141 c-118 177 -362 436 -547 579 l-140 110 33 57 c121 207 689
874 744 874 9 0 92 -83 185 -185z m-2463 -494 c493 -138 993 -353 968 -416
-174 -429 -243 -982 -172 -1381 32 -181 43 -174 -170 -120 -154 40 -230 46
-562 46 l-385 0 -20 93 c-98 456 -70 1110 72 1700 19 75 40 137 47 137 7 0
107 -26 222 -59z m4819 -26 c136 -499 181 -1336 94 -1725 l-27 -120 -299 7
c-289 6 -559 -21 -748 -76 -88 -26 -84 -38 -48 170 62 351 11 832 -128 1224
-65 180 -66 174 65 240 219 110 937 360 1044 364 14 1 35 -37 47 -84z m-3328
-698 c221 -175 430 -426 552 -667 l51 -100 -56 -220 c-76 -299 -109 -637 -93
-969 l13 -269 -115 169 c-136 199 -390 462 -547 567 -112 73 -112 75 -147 228
-93 419 -32 990 142 1330 33 63 30 64 200 -69z m1803 -62 c188 -521 183 -1247
-10 -1405 -186 -153 -432 -408 -538 -557 -63 -89 -120 -169 -127 -177 -6 -8
-8 135 -4 318 8 371 -17 619 -91 913 -59 236 -59 236 91 463 153 232 526 610
603 610 9 0 43 -74 76 -165z m-968 -1935 c2 -477 -19 -791 -50 -736 -40 72
-67 691 -42 985 45 544 89 424 92 -249z m-1738 550 c256 -55 331 -88 355 -156
128 -366 484 -907 864 -1309 181 -192 179 -193 -172 -74 -829 281 -1459 750
-1750 1302 -113 215 -120 242 -63 253 118 22 634 12 766 -16z m4128 18 c215
-44 -329 -761 -828 -1092 -346 -229 -1086 -556 -1259 -556 -8 0 67 88 166 195
397 429 696 878 833 1248 41 113 64 123 420 203 63 14 598 15 668 2z m-5142
-234 c360 -728 1312 -1396 2229 -1565 156 -28 93 -55 -305 -131 -841 -160
-1593 142 -2042 821 -186 281 -442 864 -398 908 16 17 368 130 412 132 12 0
58 -74 104 -165z m5738 103 c234 -72 227 -58 145 -279 -280 -760 -742 -1281
-1294 -1458 -391 -126 -992 -122 -1431 8 l-84 25 120 34 c280 81 352 104 570
187 769 294 1366 789 1643 1364 48 100 96 181 106 182 11 0 112 -28 225 -63z
m-3551 -742 c112 -169 316 -558 317 -604 0 -50 -409 485 -544 709 -101 168
-196 350 -195 374 1 40 313 -313 422 -479z m1331 261 c-144 -264 -545 -836
-586 -836 -67 0 339 669 543 896 145 161 156 147 43 -60z"/>
</g>
</svg>
